<svg id="Group_6706" data-name="Group 6706" xmlns="http://www.w3.org/2000/svg" xmlns:xlink="http://www.w3.org/1999/xlink" width="168.954" height="51.839" viewBox="0 0 168.954 51.839">
  <defs>
    <clipPath id="clip-path">
      <rect id="Rectangle_230" data-name="Rectangle 230" width="168.954" height="51.839" fill="none"/>
    </clipPath>
    <clipPath id="clip-path-3">
      <rect id="Rectangle_220" data-name="Rectangle 220" width="16.909" height="34.727" fill="none"/>
    </clipPath>
    <clipPath id="clip-path-4">
      <rect id="Rectangle_219" data-name="Rectangle 219" width="16.908" height="34.727" fill="none"/>
    </clipPath>
    <clipPath id="clip-path-5">
      <path id="Path_834" data-name="Path 834" d="M579.369,35.2a1.555,1.555,0,0,0-.83.172l-15.357,8.063a1.557,1.557,0,0,0-.833,1.379v19.73a1.557,1.557,0,0,0,1.182,1.511l15.339,3.809a1.552,1.552,0,0,0,.631.022.253.253,0,0,0,.061-.008l.058-.014,3.817-.947,12.523-3.107a.255.255,0,0,0,.194-.248V43.739a.256.256,0,0,0-.139-.228l-.712-.362-15.334-7.789-.346-.176a.252.252,0,0,0-.115-.028.257.257,0,0,0-.138.041" transform="translate(-562.349 -35.157)" fill="none"/>
    </clipPath>
  </defs>
  <g id="Group_227" data-name="Group 227" clip-path="url(#clip-path)">
    <g id="Group_222" data-name="Group 222">
      <g id="Group_221" data-name="Group 221" clip-path="url(#clip-path)">
        <path id="Path_822" data-name="Path 822" d="M594.972,66.183,579.62,69.992a1.555,1.555,0,0,1-.75,0l-15.339-3.809a1.557,1.557,0,0,1-1.182-1.511V44.942a1.557,1.557,0,0,1,.833-1.378L578.539,35.5a1.557,1.557,0,0,1,1.429-.01L595.3,43.28a1.556,1.556,0,0,1,.852,1.388v20a1.557,1.557,0,0,1-1.182,1.511" transform="translate(-444.103 -27.895)" fill="#018659"/>
        <g id="Group_220" data-name="Group 220" transform="translate(135.142 7.392)" opacity="0.62" style="mix-blend-mode: multiply;isolation: isolate">
          <g id="Group_219" data-name="Group 219">
            <g id="Group_218" data-name="Group 218" clip-path="url(#clip-path-3)">
              <g id="Group_217" data-name="Group 217">
                <g id="Group_216" data-name="Group 216" clip-path="url(#clip-path-4)">
                  <path id="Path_823" data-name="Path 823" d="M643.02,69.875l16.4-4.069a.255.255,0,0,0,.194-.248V43.738a.255.255,0,0,0-.14-.228L643.08,35.184a.255.255,0,0,0-.371.228L642.7,69.628a.255.255,0,0,0,.317.248" transform="translate(-642.703 -35.156)" fill="#bfa771"/>
                </g>
              </g>
            </g>
          </g>
        </g>
        <path id="Path_824" data-name="Path 824" d="M628.837,89.575l.211.536.1.262c0,.01.009.019.013.028a1.759,1.759,0,0,1,1.876.093,2.257,2.257,0,0,0-1.3.236v.009l.109-.008a3.778,3.778,0,0,1,.625-.006,2.647,2.647,0,0,1,.743.159,2.4,2.4,0,0,1,1.053.8l.025.033a.067.067,0,0,1,0,.013,3.069,3.069,0,0,0-1.956-.413l.03.01a4.008,4.008,0,0,1,.871.369,2.648,2.648,0,0,1,1.083,1.208,3.794,3.794,0,0,1,.19.513.024.024,0,0,1,0,.015,3.777,3.777,0,0,0-1.924-1.379l.029.021a3.97,3.97,0,0,1,.871.79,3.131,3.131,0,0,1,.633,1.351c.032.158.048.319.071.478a.2.2,0,0,1,0,.021,4.933,4.933,0,0,0-1.054-1.429,5.075,5.075,0,0,0-.58-.474,3.988,3.988,0,0,1,.836,3.249,5.666,5.666,0,0,0-1.295-2.587l.012.034a4.012,4.012,0,0,1,.213.873,3.943,3.943,0,0,1,0,.96,4.662,4.662,0,0,1-.355,1.289s0,.007,0,0c0-.068,0-.143,0-.217a5.687,5.687,0,0,0-.021-.7,4.88,4.88,0,0,0-.193-1.011,4.09,4.09,0,0,0-.464-1.014.075.075,0,0,0-.025-.026c-.035.347-.07.695-.105,1.047h.123c-.041.412-.082.82-.123,1.232h.123c-.041.413-.082.821-.123,1.234h.123c-.012.116-.023.229-.034.342q-.024.241-.049.482c-.012.119-.023.238-.037.357a.084.084,0,0,0,.026.079c.1.093.19.188.285.282l.028.029h-1.364l.026-.028c.1-.1.2-.2.294-.292a.06.06,0,0,0,.02-.054c-.017-.159-.032-.319-.048-.479s-.033-.321-.049-.482c-.007-.072-.014-.145-.021-.217,0-.006,0-.012,0-.022h.12l-.123-1.231h.123l-.123-1.233h.123c-.035-.352-.07-.7-.106-1.057l-.027.038a4.212,4.212,0,0,0-.553,1.355,5.6,5.6,0,0,0-.12,1.456c0,.042,0,.085,0,.128a4.115,4.115,0,0,1-.137-3.17,5.715,5.715,0,0,0-1.294,2.591,4.139,4.139,0,0,1,.061-1.718,4.034,4.034,0,0,1,.777-1.531,5.044,5.044,0,0,0-1.636,1.905,3.377,3.377,0,0,1,1.6-2.663,3.691,3.691,0,0,0-1.07.535,4.414,4.414,0,0,0-.856.843c.03-.091.059-.182.092-.272a2.9,2.9,0,0,1,.543-.934,2.7,2.7,0,0,1,.814-.621,4.3,4.3,0,0,1,.7-.277.1.1,0,0,0,.031-.014,3.685,3.685,0,0,0-1.014.046,2.966,2.966,0,0,0-.942.365l.014-.02a2.424,2.424,0,0,1,.989-.784,2.536,2.536,0,0,1,.641-.172,3.51,3.51,0,0,1,.659-.024c.081,0,.162.013.243.019a.034.034,0,0,0,.018,0,2.176,2.176,0,0,0-1.3-.235,1.7,1.7,0,0,1,.92-.323,1.835,1.835,0,0,1,.953.226c0-.009.009-.017.012-.024l.312-.786a.155.155,0,0,0,0-.018Z" transform="translate(-493.69 -70.74)" fill="#eac66c"/>
        <path id="Path_825" data-name="Path 825" d="M620.978,130.84l.919.83.013,0a1.255,1.255,0,0,0,.284-.4.608.608,0,0,0,.02-.378l-.01-.041a.29.29,0,0,1,.227.1.423.423,0,0,1,.09.3.986.986,0,0,1-.241.579c-.023.029-.048.057-.072.086,0,0,0,.008,0,.009a3.389,3.389,0,0,0,.518.387.974.974,0,0,0,.229.1.276.276,0,0,0,.355-.24.346.346,0,0,1,.128-.229.327.327,0,0,1,.492.147.584.584,0,0,1,.01.417.707.707,0,0,1-.509.482,1.078,1.078,0,0,1-.98-.172c-.185-.134-.358-.285-.537-.428l-.068-.056c-.047.054-.095.106-.139.16a.778.778,0,0,0-.18.367.62.62,0,0,0,.013.257l.01.04a.3.3,0,0,1-.229-.109.426.426,0,0,1-.087-.295.948.948,0,0,1,.206-.536c.033-.046.071-.088.109-.135l-1.016-.875-1.014.874c.048.062.1.119.138.18a.956.956,0,0,1,.168.408.489.489,0,0,1-.062.355.3.3,0,0,1-.245.133c.008-.042.018-.081.024-.12a.63.63,0,0,0-.1-.425,1.771,1.771,0,0,0-.225-.278c-.049.041-.1.081-.144.12-.168.133-.328.276-.506.394a1.056,1.056,0,0,1-.982.124.692.692,0,0,1-.473-.515.568.568,0,0,1,.024-.368.329.329,0,0,1,.463-.164.311.311,0,0,1,.149.211c.007.03.012.061.022.09a.271.271,0,0,0,.349.184,1.046,1.046,0,0,0,.223-.1,3.593,3.593,0,0,0,.526-.392c-.025-.029-.049-.056-.071-.085a1.059,1.059,0,0,1-.233-.472.543.543,0,0,1,.027-.33.3.3,0,0,1,.244-.185.2.2,0,0,1,.03,0c-.008.046-.018.092-.024.138a.622.622,0,0,0,.089.387,1.747,1.747,0,0,0,.239.3l.924-.834a.228.228,0,0,0-.018-.019,16.963,16.963,0,0,0-1.477-1.108,8.987,8.987,0,0,0-1.7-.89,6.788,6.788,0,0,0-1.344-.369,6.114,6.114,0,0,0-.791-.079.965.965,0,0,1-.137-.013c.091-.028.182-.059.274-.085a4.157,4.157,0,0,1,.857-.151,4.2,4.2,0,0,1,1.773.273,6.5,6.5,0,0,1,1.337.7,13.671,13.671,0,0,1,1.445,1.139l.22.2.2-.178a14.421,14.421,0,0,1,1.319-1.057,6.865,6.865,0,0,1,1.378-.76,4.583,4.583,0,0,1,.928-.265,4,4,0,0,1,.939-.049,4.248,4.248,0,0,1,1.123.233l.026.01-.164.007a6.376,6.376,0,0,0-.7.068,7.225,7.225,0,0,0-2.423.852,12.129,12.129,0,0,0-1.556,1.039c-.2.157-.4.32-.6.48l-.029.025" transform="translate(-485.394 -101.178)" fill="#eac66c"/>
      </g>
    </g>
    <g id="Group_224" data-name="Group 224" transform="translate(118.246 7.392)">
      <g id="Group_223" data-name="Group 223" clip-path="url(#clip-path-5)">
        <path id="Path_826" data-name="Path 826" d="M529.575,144.163l15.732,5.581-16.359-3.32Z" transform="translate(-535.971 -121.242)" fill="#fff"/>
        <path id="Path_827" data-name="Path 827" d="M527.476,127.641l16.429,2.62-16.635-.283Z" transform="translate(-534.647 -108.194)" fill="#fff"/>
        <path id="Path_828" data-name="Path 828" d="M526.791,80.876l16.745-4.617-15.97,6.832Z" transform="translate(-534.268 -67.616)" fill="#fff"/>
        <path id="Path_829" data-name="Path 829" d="M529.3,107.439l16.284-2.188-15.806,4.485Z" transform="translate(-536.251 -90.512)" fill="#fff"/>
        <path id="Path_830" data-name="Path 830" d="M691.313,146.423l-16.359,3.32,15.732-5.581Z" transform="translate(-651.277 -121.242)" fill="#fff"/>
        <path id="Path_831" data-name="Path 831" d="M691.954,129.978l-16.635.283,16.429-2.62Z" transform="translate(-651.565 -108.194)" fill="#fff"/>
        <path id="Path_832" data-name="Path 832" d="M691.246,83.091l-15.97-6.832,16.745,4.617Z" transform="translate(-651.531 -67.617)" fill="#fff"/>
        <path id="Path_833" data-name="Path 833" d="M690.761,109.735l-15.806-4.486,16.284,2.188Z" transform="translate(-651.277 -90.511)" fill="#fff"/>
      </g>
    </g>
    <path id="Path_835" data-name="Path 835" d="M62.852,146.471h-1.8v2.057h-.962v-4.915h.962v2h1.8v-2h.962v4.915h-.962Z" transform="translate(-47.457 -113.416)"/>
    <g id="Group_226" data-name="Group 226">
      <g id="Group_225" data-name="Group 225" clip-path="url(#clip-path)">
        <path id="Path_836" data-name="Path 836" d="M82.431,145.7a2.925,2.925,0,0,1,.541-1.892,1.878,1.878,0,0,1,1.545-.663,2.164,2.164,0,0,1,.92.183,1.734,1.734,0,0,1,.653.52,2.278,2.278,0,0,1,.386.807A4.038,4.038,0,0,1,86.6,145.7a2.911,2.911,0,0,1-.544,1.892,1.88,1.88,0,0,1-1.541.664,2.186,2.186,0,0,1-.927-.182,1.7,1.7,0,0,1-.65-.52,2.3,2.3,0,0,1-.382-.807,4.037,4.037,0,0,1-.127-1.046m1.011,0a3.462,3.462,0,0,0,.063.685,1.765,1.765,0,0,0,.193.537.983.983,0,0,0,.333.351.9.9,0,0,0,.484.126.914.914,0,0,0,.794-.4,2.317,2.317,0,0,0,.281-1.3,3.541,3.541,0,0,0-.06-.667,1.869,1.869,0,0,0-.186-.541.972.972,0,0,0-.33-.362.989.989,0,0,0-1.292.281,2.321,2.321,0,0,0-.281,1.288" transform="translate(-65.098 -113.047)"/>
        <path id="Path_837" data-name="Path 837" d="M109.986,148.528h-3.11v-4.915h.962v4.058h2.149Z" transform="translate(-84.402 -113.416)"/>
        <path id="Path_838" data-name="Path 838" d="M122.915,146.7l-1.615-3.089h1.145l.9,1.846.1.52h.035l.105-.534.871-1.832h1.032l-1.608,3.082v1.832h-.962Z" transform="translate(-95.794 -113.416)"/>
        <path id="Path_839" data-name="Path 839" d="M155.833,145.979l.105-.976H155.9l-.3.787-1.046,1.832h-.309l-1.1-1.84-.309-.779h-.035l.14.969v2.556h-.913v-4.915h.878l1.313,2.247.232.562h.028l.211-.576,1.243-2.233h.871v4.915h-.962Z" transform="translate(-120.055 -113.416)"/>
        <path id="Path_840" data-name="Path 840" d="M179.574,147.309h-1.51l-.372,1.088h-.962l1.769-4.95h.709l1.769,4.95h-1.011Zm-1.264-.772h1.053l-.365-1.1-.147-.773h-.035l-.147.779Z" transform="translate(-139.569 -113.284)"/>
        <path id="Path_841" data-name="Path 841" d="M201.488,146.429h-.253v2.1h-.962v-4.915h.962v2.177l.225-.1,1.355-2.078h1.1l-1.433,2.064-.379.267.393.274,1.636,2.31h-1.187Z" transform="translate(-158.161 -113.415)"/>
        <path id="Path_842" data-name="Path 842" d="M222.191,146.429h-.253v2.1h-.962v-4.915h.962v2.177l.225-.1,1.355-2.078h1.1l-1.433,2.064-.379.267.393.274,1.636,2.31h-1.187Z" transform="translate(-174.511 -113.415)"/>
        <path id="Path_843" data-name="Path 843" d="M244.522,147.309h-1.51l-.372,1.088h-.962l1.769-4.95h.709l1.769,4.95h-1.011Zm-1.264-.772h1.053l-.365-1.1-.147-.773h-.035l-.147.779Z" transform="translate(-190.86 -113.284)"/>
        <path id="Path_844" data-name="Path 844" d="M267.311,146.471h-1.8v2.057h-.962v-4.915h.962v2h1.8v-2h.962v4.915h-.962Z" transform="translate(-208.924 -113.416)"/>
        <path id="Path_845" data-name="Path 845" d="M299.887,145.979l.105-.976h-.042l-.3.787-1.046,1.832h-.309l-1.1-1.84-.309-.779h-.035l.14.969v2.556h-.913v-4.915h.878l1.313,2.247.232.562h.028l.211-.576,1.243-2.233h.871v4.915h-.962Z" transform="translate(-233.819 -113.416)"/>
        <path id="Path_846" data-name="Path 846" d="M325.376,143.613h.913v3.174a2.386,2.386,0,0,1-.126.822,1.543,1.543,0,0,1-.351.569,1.355,1.355,0,0,1-.548.33,2.278,2.278,0,0,1-.709.105q-1.868,0-1.868-1.706v-3.293h.962v3.1a1.947,1.947,0,0,0,.053.488.752.752,0,0,0,.165.323.623.623,0,0,0,.281.176,1.32,1.32,0,0,0,.393.053.77.77,0,0,0,.639-.246,1.274,1.274,0,0,0,.2-.793Z" transform="translate(-254.835 -113.415)"/>
        <path id="Path_847" data-name="Path 847" d="M345.613,145.833l-.386-.772h-.035l.112.772V148.4h-.913v-4.95h.7l1.861,2.619.372.751h.035l-.112-.751v-2.584h.913v4.95h-.7Z" transform="translate(-271.976 -113.283)"/>
        <rect id="Rectangle_222" data-name="Rectangle 222" width="0.962" height="4.915" transform="translate(77.267 30.198)"/>
        <path id="Path_848" data-name="Path 848" d="M379.931,147.957a1.473,1.473,0,0,1-.572.23,3.633,3.633,0,0,1-.713.07,2.554,2.554,0,0,1-.839-.137,1.794,1.794,0,0,1-.7-.442,2.174,2.174,0,0,1-.481-.794,3.45,3.45,0,0,1-.179-1.183,3.2,3.2,0,0,1,.2-1.211,2.2,2.2,0,0,1,.519-.786,1.925,1.925,0,0,1,.713-.429,2.5,2.5,0,0,1,.786-.13,3.843,3.843,0,0,1,.713.056,2.616,2.616,0,0,1,.481.134l-.189.815a1.406,1.406,0,0,0-.383-.113,3.529,3.529,0,0,0-.537-.035,1.172,1.172,0,0,0-.937.415,1.953,1.953,0,0,0-.355,1.287,2.666,2.666,0,0,0,.084.693,1.49,1.49,0,0,0,.256.535,1.184,1.184,0,0,0,.428.345,1.36,1.36,0,0,0,.594.123,1.931,1.931,0,0,0,.533-.063,1.562,1.562,0,0,0,.379-.161Z" transform="translate(-297.292 -113.046)"/>
        <rect id="Rectangle_223" data-name="Rectangle 223" width="0.962" height="4.915" transform="translate(83.474 30.198)"/>
        <path id="Path_849" data-name="Path 849" d="M406.7,143.4q.295-.056.649-.088t.706-.032a4.589,4.589,0,0,1,.734.06,1.823,1.823,0,0,1,.663.239,1.383,1.383,0,0,1,.481.5,1.643,1.643,0,0,1,.186.832,1.724,1.724,0,0,1-.161.783,1.5,1.5,0,0,1-.428.523,1.731,1.731,0,0,1-.607.295,2.719,2.719,0,0,1-.706.091h-.112c-.051,0-.105,0-.161,0s-.111-.006-.165-.011-.092-.009-.116-.014v1.692H406.7Zm1.432.709q-.14,0-.267.011c-.084.007-.152.015-.2.024v1.594a.717.717,0,0,0,.084.014c.038,0,.077.008.119.011s.083,0,.123,0h.088a2.011,2.011,0,0,0,.376-.035.928.928,0,0,0,.333-.13.682.682,0,0,0,.236-.263.963.963,0,0,0,.088-.442.778.778,0,0,0-.084-.382.688.688,0,0,0-.221-.242.865.865,0,0,0-.312-.127,1.842,1.842,0,0,0-.358-.035" transform="translate(-321.184 -113.152)"/>
        <path id="Path_850" data-name="Path 850" d="M424.738,147.309h-1.51l-.372,1.088h-.962l1.769-4.95h.709l1.769,4.95h-1.011Zm-1.264-.772h1.053l-.365-1.1-.147-.773h-.035l-.147.779Z" transform="translate(-333.182 -113.284)"/>
        <path id="Path_851" data-name="Path 851" d="M447.879,148.528h-3.11v-4.915h.962v4.058h2.149Z" transform="translate(-351.247 -113.416)"/>
        <rect id="Rectangle_224" data-name="Rectangle 224" width="0.962" height="4.915" transform="translate(97.51 30.198)"/>
        <path id="Path_852" data-name="Path 852" d="M475.65,144.47h-1.432v4.058h-.962V144.47h-1.439v-.856h3.834Z" transform="translate(-372.607 -113.416)"/>
        <path id="Path_853" data-name="Path 853" d="M494.634,146.7l-1.615-3.089h1.144l.9,1.846.1.52h.035l.105-.534.871-1.832H497.2L495.6,146.7v1.832h-.962Z" transform="translate(-389.352 -113.416)"/>
        <path id="Path_854" data-name="Path 854" d="M61.7,105.245a1.592,1.592,0,0,1-1.493-1.678c.029-1.474,1.2-2.007,2.88-1.891v-.417l.524-.165.01,2.986a1.077,1.077,0,0,0,1.154,1.164h.533v.494H64.64a1.405,1.405,0,0,1-1.5-1.328,1.589,1.589,0,0,1-1.435.834m.087-.466c1.416,0,1.318-1.551,1.3-2.618-.63.019-2.249-.213-2.337,1.4-.019.349.194,1.222,1.038,1.222m.077-5.032h-.611v.659h.611Zm1.328,0h-.611v.659h.611Z" transform="translate(-47.548 -78.773)"/>
        <path id="Path_855" data-name="Path 855" d="M61.7,105.245a1.592,1.592,0,0,1-1.493-1.678c.029-1.474,1.2-2.007,2.88-1.891v-.417l.524-.165.01,2.986a1.077,1.077,0,0,0,1.154,1.164h.533v.494H64.64a1.405,1.405,0,0,1-1.5-1.328A1.589,1.589,0,0,1,61.7,105.245Zm.087-.466c1.416,0,1.318-1.551,1.3-2.618-.63.019-2.249-.213-2.337,1.4C60.732,103.907,60.946,104.779,61.789,104.779Zm.077-5.032h-.611v.659h.611Zm1.328,0h-.611v.659h.611Z" transform="translate(-47.548 -78.773)" fill="none" stroke="#000" stroke-miterlimit="10" stroke-width="0.893"/>
        <path id="Path_856" data-name="Path 856" d="M84.234,112v-.495h.834a1.072,1.072,0,0,0,1.154-1.192v-2.327h.524v2.133c0,.785.388,1.5,1.251,1.5a1.084,1.084,0,0,0,1.154-1.2v-2.434h.524v2.133c0,.785.388,1.5,1.251,1.5a1.084,1.084,0,0,0,1.154-1.2v-2.744H92.6v2.657a1.546,1.546,0,0,1-1.542,1.774,1.839,1.839,0,0,1-1.512-.96,1.429,1.429,0,0,1-1.416.96,1.489,1.489,0,0,1-1.367-.8,2.2,2.2,0,0,1-.155-.252A1.346,1.346,0,0,1,85.2,112Z" transform="translate(-66.522 -85.036)"/>
        <path id="Path_857" data-name="Path 857" d="M84.234,112v-.495h.834a1.072,1.072,0,0,0,1.154-1.192v-2.327h.524v2.133c0,.785.388,1.5,1.251,1.5a1.084,1.084,0,0,0,1.154-1.2v-2.434h.524v2.133c0,.785.388,1.5,1.251,1.5a1.084,1.084,0,0,0,1.154-1.2v-2.744H92.6v2.657a1.546,1.546,0,0,1-1.542,1.774,1.839,1.839,0,0,1-1.512-.96,1.429,1.429,0,0,1-1.416.96,1.489,1.489,0,0,1-1.367-.8,2.2,2.2,0,0,1-.155-.252A1.346,1.346,0,0,1,85.2,112Z" transform="translate(-66.522 -85.036)" fill="none" stroke="#000" stroke-miterlimit="10" stroke-width="0.893"/>
        <path id="Path_858" data-name="Path 858" d="M132.6,109.057c-.058-.717-.4-.941-1.008-.941-.553,0-1.047.165-1.125.756h-.514a1.449,1.449,0,0,1,1.639-1.241c.97,0,1.551.446,1.551,1.445v2.395h1.377v.495h-4.683v-.495H132.6Z" transform="translate(-102.536 -85)"/>
        <path id="Path_859" data-name="Path 859" d="M132.6,109.057c-.058-.717-.4-.941-1.008-.941-.553,0-1.047.165-1.125.756h-.514a1.449,1.449,0,0,1,1.639-1.241c.97,0,1.551.446,1.551,1.445v2.395h1.377v.495h-4.683v-.495H132.6Z" transform="translate(-102.536 -85)" fill="none" stroke="#000" stroke-miterlimit="10" stroke-width="0.893"/>
        <path id="Path_860" data-name="Path 860" d="M156.444,102.011a2.343,2.343,0,0,1-1.251,2.065,1.083,1.083,0,0,0,.233.039h2v.494h-1.833a3.642,3.642,0,0,1-1.037-.223,3.643,3.643,0,0,1-1.037.223h-1.823v-.494h1.988a1.14,1.14,0,0,0,.242-.039,2.3,2.3,0,0,1-1.26-2.065,1.891,1.891,0,1,1,3.781,0m-1.891,1.862a2.089,2.089,0,0,0,1.367-1.852,1.373,1.373,0,1,0-2.734,0,2.1,2.1,0,0,0,1.367,1.852m-.359-4.906h-.611v-.65h.611Zm1.328,0h-.611v-.65h.611Z" transform="translate(-119.796 -77.644)"/>
        <path id="Path_861" data-name="Path 861" d="M156.444,102.011a2.343,2.343,0,0,1-1.251,2.065,1.083,1.083,0,0,0,.233.039h2v.494h-1.833a3.642,3.642,0,0,1-1.037-.223,3.643,3.643,0,0,1-1.037.223h-1.823v-.494h1.988a1.14,1.14,0,0,0,.242-.039,2.3,2.3,0,0,1-1.26-2.065,1.891,1.891,0,1,1,3.781,0Zm-1.891,1.862a2.089,2.089,0,0,0,1.367-1.852,1.373,1.373,0,1,0-2.734,0A2.1,2.1,0,0,0,154.553,103.873Zm-.359-4.906h-.611v-.65h.611Zm1.328,0h-.611v-.65h.611Z" transform="translate(-119.796 -77.644)" fill="none" stroke="#000" stroke-miterlimit="10" stroke-width="0.893"/>
        <path id="Path_862" data-name="Path 862" d="M178.906,113.147a1.142,1.142,0,0,0,1.163-1.163,2.151,2.151,0,0,1,2.036-2.23,2.125,2.125,0,0,1,2.046,2.2,1.209,1.209,0,0,0,1.241,1.193h.494v.494h-.417a1.739,1.739,0,0,1-1.416-.824,1.993,1.993,0,0,1-1.949,1.571,1.947,1.947,0,0,1-1.871-1.328,1.411,1.411,0,0,1-1.241.582h-.417v-.494Zm3.2-2.919c-1.047,0-1.474,1.037-1.474,1.842s.427,1.842,1.474,1.842,1.483-1.028,1.483-1.842-.426-1.842-1.483-1.842" transform="translate(-141.027 -86.675)"/>
        <path id="Path_863" data-name="Path 863" d="M178.906,113.147a1.142,1.142,0,0,0,1.163-1.163,2.151,2.151,0,0,1,2.036-2.23,2.125,2.125,0,0,1,2.046,2.2,1.209,1.209,0,0,0,1.241,1.193h.494v.494h-.417a1.739,1.739,0,0,1-1.416-.824,1.993,1.993,0,0,1-1.949,1.571,1.947,1.947,0,0,1-1.871-1.328,1.411,1.411,0,0,1-1.241.582h-.417v-.494Zm3.2-2.919c-1.047,0-1.474,1.037-1.474,1.842s.427,1.842,1.474,1.842,1.483-1.028,1.483-1.842S183.162,110.228,182.105,110.228Z" transform="translate(-141.027 -86.675)" fill="none" stroke="#000" stroke-miterlimit="10" stroke-width="0.893"/>
        <path id="Path_864" data-name="Path 864" d="M213.113,104.61v-.495h.834a1.072,1.072,0,0,0,1.154-1.192V98.317h.523v4.528a1.539,1.539,0,0,1-1.541,1.765Z" transform="translate(-168.302 -77.644)"/>
        <path id="Path_865" data-name="Path 865" d="M213.113,104.61v-.495h.834a1.072,1.072,0,0,0,1.154-1.192V98.317h.523v4.528a1.539,1.539,0,0,1-1.541,1.765Z" transform="translate(-168.302 -77.644)" fill="none" stroke="#000" stroke-miterlimit="10" stroke-width="0.893"/>
        <rect id="Rectangle_225" data-name="Rectangle 225" width="0.524" height="6.293" transform="translate(48.719 20.673)"/>
        <rect id="Rectangle_226" data-name="Rectangle 226" width="0.524" height="6.293" transform="translate(48.719 20.673)" fill="none" stroke="#000" stroke-miterlimit="10" stroke-width="0.893"/>
        <path id="Path_866" data-name="Path 866" d="M248.726,105.245a1.592,1.592,0,0,1-1.493-1.678c.029-1.474,1.2-2.007,2.88-1.891v-.417l.524-.165.01,2.986a1.077,1.077,0,0,0,1.154,1.164h.533v.494h-.669a1.406,1.406,0,0,1-1.5-1.328,1.588,1.588,0,0,1-1.435.834m.087-.466c1.416,0,1.319-1.551,1.3-2.618-.63.019-2.249-.213-2.337,1.4-.019.349.194,1.222,1.038,1.222m.077-5.032h-.611v.659h.611Zm1.328,0h-.611v.659h.611Z" transform="translate(-195.246 -78.773)"/>
        <path id="Path_867" data-name="Path 867" d="M248.726,105.245a1.592,1.592,0,0,1-1.493-1.678c.029-1.474,1.2-2.007,2.88-1.891v-.417l.524-.165.01,2.986a1.077,1.077,0,0,0,1.154,1.164h.533v.494h-.669a1.406,1.406,0,0,1-1.5-1.328A1.588,1.588,0,0,1,248.726,105.245Zm.087-.466c1.416,0,1.319-1.551,1.3-2.618-.63.019-2.249-.213-2.337,1.4C247.756,103.907,247.969,104.779,248.813,104.779Zm.077-5.032h-.611v.659h.611Zm1.328,0h-.611v.659h.611Z" transform="translate(-195.246 -78.773)" fill="none" stroke="#000" stroke-miterlimit="10" stroke-width="0.893"/>
        <path id="Path_868" data-name="Path 868" d="M271.4,113.147a1.142,1.142,0,0,0,1.163-1.163,2.151,2.151,0,0,1,2.036-2.23,2.125,2.125,0,0,1,2.046,2.2,1.209,1.209,0,0,0,1.241,1.193h.494v.494h-.417a1.738,1.738,0,0,1-1.416-.824,1.993,1.993,0,0,1-1.949,1.571,1.947,1.947,0,0,1-1.871-1.328,1.411,1.411,0,0,1-1.241.582h-.417v-.494Zm3.2-2.919c-1.047,0-1.474,1.037-1.474,1.842s.427,1.842,1.474,1.842,1.483-1.028,1.483-1.842-.427-1.842-1.483-1.842" transform="translate(-214.074 -86.675)"/>
        <path id="Path_869" data-name="Path 869" d="M271.4,113.147a1.142,1.142,0,0,0,1.163-1.163,2.151,2.151,0,0,1,2.036-2.23,2.125,2.125,0,0,1,2.046,2.2,1.209,1.209,0,0,0,1.241,1.193h.494v.494h-.417a1.738,1.738,0,0,1-1.416-.824,1.993,1.993,0,0,1-1.949,1.571,1.947,1.947,0,0,1-1.871-1.328,1.411,1.411,0,0,1-1.241.582h-.417v-.494Zm3.2-2.919c-1.047,0-1.474,1.037-1.474,1.842s.427,1.842,1.474,1.842,1.483-1.028,1.483-1.842S275.659,110.228,274.6,110.228Z" transform="translate(-214.074 -86.675)" fill="none" stroke="#000" stroke-miterlimit="10" stroke-width="0.893"/>
        <path id="Path_870" data-name="Path 870" d="M305.609,112.164h1.4v-2.977h.524l-.116,1.26a3.283,3.283,0,0,1,3.161-1.939,2.267,2.267,0,0,1,2.492,2.162,1.965,1.965,0,0,1-2.152,1.988h-5.3Zm5.3,0a1.521,1.521,0,0,0,1.58-1.493,1.765,1.765,0,0,0-1.833-1.7,3.194,3.194,0,0,0-3.287,3.19Z" transform="translate(-241.348 -85.692)"/>
        <path id="Path_871" data-name="Path 871" d="M305.609,112.164h1.4v-2.977h.524l-.116,1.26a3.283,3.283,0,0,1,3.161-1.939,2.267,2.267,0,0,1,2.492,2.162,1.965,1.965,0,0,1-2.152,1.988h-5.3Zm5.3,0a1.521,1.521,0,0,0,1.58-1.493,1.765,1.765,0,0,0-1.833-1.7,3.194,3.194,0,0,0-3.287,3.19Z" transform="translate(-241.348 -85.692)" fill="none" stroke="#000" stroke-miterlimit="10" stroke-width="0.893"/>
        <path id="Path_872" data-name="Path 872" d="M349.25,104.61a1.539,1.539,0,0,1-1.542-1.765V98.317h.524v4.606a1.069,1.069,0,0,0,1.144,1.192h.466v.495Z" transform="translate(-274.595 -77.644)"/>
        <path id="Path_873" data-name="Path 873" d="M349.25,104.61a1.539,1.539,0,0,1-1.542-1.765V98.317h.524v4.606a1.069,1.069,0,0,0,1.144,1.192h.466v.495Z" transform="translate(-274.595 -77.644)" fill="none" stroke="#000" stroke-miterlimit="10" stroke-width="0.893"/>
        <path id="Path_874" data-name="Path 874" d="M362.816,108.566a6.247,6.247,0,0,1-1.765,2,2.043,2.043,0,0,0,.66.107H363.7v.494h-1.823a2.883,2.883,0,0,1-1.289-.32,2.842,2.842,0,0,1-1.28.32h-1.823v-.494h1.988a2.136,2.136,0,0,0,.66-.107,6.021,6.021,0,0,1-1.765-2,2.245,2.245,0,0,1,4.45,0m-2.23,1.794a4.172,4.172,0,0,0,1.648-1.91,1.665,1.665,0,0,0-3.287,0,4.135,4.135,0,0,0,1.639,1.91" transform="translate(-282.315 -84.199)"/>
        <path id="Path_875" data-name="Path 875" d="M362.816,108.566a6.247,6.247,0,0,1-1.765,2,2.043,2.043,0,0,0,.66.107H363.7v.494h-1.823a2.883,2.883,0,0,1-1.289-.32,2.842,2.842,0,0,1-1.28.32h-1.823v-.494h1.988a2.136,2.136,0,0,0,.66-.107,6.021,6.021,0,0,1-1.765-2,2.245,2.245,0,0,1,4.45,0Zm-2.23,1.794a4.172,4.172,0,0,0,1.648-1.91,1.665,1.665,0,0,0-3.287,0A4.135,4.135,0,0,0,360.586,110.36Z" transform="translate(-282.315 -84.199)" fill="none" stroke="#000" stroke-miterlimit="10" stroke-width="0.893"/>
        <path id="Path_876" data-name="Path 876" d="M386.856,104.61v-.495h.834a1.072,1.072,0,0,0,1.154-1.192V98.317h.524v4.528a1.539,1.539,0,0,1-1.542,1.765Z" transform="translate(-305.511 -77.644)"/>
        <path id="Path_877" data-name="Path 877" d="M386.856,104.61v-.495h.834a1.072,1.072,0,0,0,1.154-1.192V98.317h.524v4.528a1.539,1.539,0,0,1-1.542,1.765Z" transform="translate(-305.511 -77.644)" fill="none" stroke="#000" stroke-miterlimit="10" stroke-width="0.893"/>
        <rect id="Rectangle_227" data-name="Rectangle 227" width="0.523" height="6.293" transform="translate(85.252 20.673)"/>
        <rect id="Rectangle_228" data-name="Rectangle 228" width="0.523" height="6.293" transform="translate(85.252 20.673)" fill="none" stroke="#000" stroke-miterlimit="10" stroke-width="0.893"/>
        <path id="Path_878" data-name="Path 878" d="M422.47,105.245a1.592,1.592,0,0,1-1.493-1.678c.029-1.474,1.2-2.007,2.88-1.891v-.417l.524-.165.01,2.986a1.077,1.077,0,0,0,1.154,1.164h.533v.494h-.669a1.406,1.406,0,0,1-1.5-1.328,1.589,1.589,0,0,1-1.435.834m.087-.466c1.416,0,1.319-1.551,1.3-2.618-.63.019-2.249-.213-2.337,1.4-.019.349.194,1.222,1.037,1.222m.078-5.032h-.611v.659h.611Zm1.328,0h-.611v.659h.611Z" transform="translate(-332.457 -78.773)"/>
        <path id="Path_879" data-name="Path 879" d="M422.47,105.245a1.592,1.592,0,0,1-1.493-1.678c.029-1.474,1.2-2.007,2.88-1.891v-.417l.524-.165.01,2.986a1.077,1.077,0,0,0,1.154,1.164h.533v.494h-.669a1.406,1.406,0,0,1-1.5-1.328A1.589,1.589,0,0,1,422.47,105.245Zm.087-.466c1.416,0,1.319-1.551,1.3-2.618-.63.019-2.249-.213-2.337,1.4C421.5,103.907,421.714,104.779,422.557,104.779Zm.078-5.032h-.611v.659h.611Zm1.328,0h-.611v.659h.611Z" transform="translate(-332.457 -78.773)" fill="none" stroke="#000" stroke-miterlimit="10" stroke-width="0.893"/>
        <path id="Path_880" data-name="Path 880" d="M445,104.61v-.494h.834a1.072,1.072,0,0,0,1.154-1.193v-2.637h.524v2.56a1.539,1.539,0,0,1-1.542,1.765Zm1.474-5.643h-.611v-.65h.611Z" transform="translate(-351.43 -77.644)"/>
        <path id="Path_881" data-name="Path 881" d="M445,104.61v-.494h.834a1.072,1.072,0,0,0,1.154-1.193v-2.637h.524v2.56a1.539,1.539,0,0,1-1.542,1.765Zm1.474-5.643h-.611v-.65h.611Z" transform="translate(-351.43 -77.644)" fill="none" stroke="#000" stroke-miterlimit="10" stroke-width="0.893"/>
        <path id="Path_882" data-name="Path 882" d="M465.125,104.61a1.539,1.539,0,0,1-1.542-1.765V98.317h.524v4.606a1.069,1.069,0,0,0,1.144,1.192h.466v.495Z" transform="translate(-366.105 -77.644)"/>
        <path id="Path_883" data-name="Path 883" d="M465.125,104.61a1.539,1.539,0,0,1-1.542-1.765V98.317h.524v4.606a1.069,1.069,0,0,0,1.144,1.192h.466v.495Z" transform="translate(-366.105 -77.644)" fill="none" stroke="#000" stroke-miterlimit="10" stroke-width="0.893"/>
        <path id="Path_884" data-name="Path 884" d="M473.544,111.165v-.494h.775a1.084,1.084,0,0,0,1.154-1.2v-.533a2.053,2.053,0,1,1,2.036,2.317,1.862,1.862,0,0,1-1.677-.94,1.379,1.379,0,0,1-1.386.853Zm3.965-4.072a1.655,1.655,0,0,0-1.493,1.842c0,.8.437,1.842,1.493,1.842s1.474-.96,1.474-1.842c0-.815-.417-1.842-1.474-1.842" transform="translate(-373.971 -84.199)"/>
        <path id="Path_885" data-name="Path 885" d="M473.544,111.165v-.494h.775a1.084,1.084,0,0,0,1.154-1.2v-.533a2.053,2.053,0,1,1,2.036,2.317,1.862,1.862,0,0,1-1.677-.94,1.379,1.379,0,0,1-1.386.853Zm3.965-4.072a1.655,1.655,0,0,0-1.493,1.842c0,.8.437,1.842,1.493,1.842s1.474-.96,1.474-1.842C478.983,108.12,478.566,107.092,477.509,107.092Z" transform="translate(-373.971 -84.199)" fill="none" stroke="#000" stroke-miterlimit="10" stroke-width="0.893"/>
        <path id="Path_886" data-name="Path 886" d="M505.176,90.445l.116-.31h.242v-.33c0-.388.184-.756.621-.756a.623.623,0,0,1,.591.6h-.33c-.01-.165-.078-.3-.271-.3-.223,0-.3.213-.3.456v.33h.524a.227.227,0,0,0,.213-.107l.223.2a.518.518,0,0,1-.465.213Zm1.27.553h-.524v6.293h.524Z" transform="translate(-398.952 -70.325)"/>
        <path id="Path_887" data-name="Path 887" d="M505.176,90.445l.116-.31h.242v-.33c0-.388.184-.756.621-.756a.623.623,0,0,1,.591.6h-.33c-.01-.165-.078-.3-.271-.3-.223,0-.3.213-.3.456v.33h.524a.227.227,0,0,0,.213-.107l.223.2a.518.518,0,0,1-.465.213Zm1.27.553h-.524v6.293h.524Z" transform="translate(-398.952 -70.325)" fill="none" stroke="#000" stroke-miterlimit="10" stroke-width="0.893"/>
      </g>
    </g>
  </g>
</svg>
